<?xml version="1.0" encoding="utf-8"?>
<!-- Generator: Adobe Illustrator 28.0.0, SVG Export Plug-In . SVG Version: 6.00 Build 0)  -->
<svg version="1.1" id="Layer_1" xmlns="http://www.w3.org/2000/svg" xmlns:xlink="http://www.w3.org/1999/xlink" x="0px" y="0px"
	 viewBox="0 0 1200 800" style="enable-background:new 0 0 1200 800;" xml:space="preserve">
<style type="text/css">
	.st0{fill:#FFFFFF;}
</style>
<path class="st0" d="M186,270c-18.9,7.9-39.7,30.2-46.2,58.3c-8.3,35.5,26.3,50.5,29.1,45.7c3.3-5.8-6.2-7.8-8.2-26.2
	c-2.5-23.8,8.5-50.5,22.5-62.1c2.6-2.1,2.5,0.9,2.5,6.4c0,10-0.6,99.7-0.6,118.4c0,25.3-1,33.3-3,41.2c-1.9,8-4.9,13.4-2.6,15.5
	c2.6,2.3,13.7-3.2,20.1-12.1c7.7-10.7,10.4-23.6,10.9-37.6c0.6-16.8,0.5-43.6,0.6-58.8c0-14,0.2-54.9-0.2-79.6
	C210.6,273,193.9,266.7,186,270 M1057.4,403c-2.7,0-4,2.8-5,7.6c-3.6,16.5-7.3,20.3-12.2,20.3c-5.4,0-10.3-8.2-11.6-24.6
	c-1-12.9-0.8-36.6,0.4-60.2c0.3-4.8-1.1-9.6-14.1-14.4c-5.6-2-13.8-5-17.8,4.8c-11.5,27.6-15.9,49.6-17,58.5c0,0.5-0.6,0.5-0.7-0.5
	c-0.7-7.1-2.2-20.1-2.3-47.4c-0.1-5.3-1.2-9.8-7.1-13.5c-3.8-2.4-15.4-6.7-19.5-1.6c-3.6,4.1-7.8,15.3-12.1,28.4
	c-3.5,10.7-6,18-6,18s0-29,0.1-39.9c0-4.1-2.8-5.5-3.7-5.8c-3.9-1.1-11.5-3-14.7-3c-4,0-4.9,2.2-4.9,5.5c0,0.4-0.7,38.1-0.7,64.4
	v3.7c-2.2,12.1-9.3,28.6-17.1,28.6s-11.4-6.9-11.4-38.3c0-18.3,0.6-26.3,0.8-39.5c0.2-7.6,0.5-13.5,0.4-14.8
	c-0.1-4.1-7.1-6.1-10.4-6.9c-3.3-0.8-6.2-1-8.4-0.9c-3.1,0.2-5.4,2.3-5.4,5.2v4.4c-4.1-6.4-10.6-10.9-15-12.1
	c-11.7-3.5-24-0.4-33.3,12.6c-7.3,10.3-11.8,21.9-13.5,38.7c-1.3,12.2-0.9,24.6,1.4,35.1c-2.8,11.8-7.9,16.7-13.4,16.7
	c-8.1,0-13.9-13.2-13.3-36c0.5-15,3.5-25.5,6.7-40.8c1.4-6.5,0.3-9.9-2.6-13.2c-2.6-3-8.2-4.5-16.2-2.6c-5.7,1.4-13.9,2.8-21.3,3.9
	c0,0,0.4-1.8,0.8-5c1.9-16.6-16.1-15.3-21.9-10c-3.5,3.2-5.8,6.9-6.7,13.6c-1.4,10.7,7.3,15.7,7.3,15.7
	c-2.9,13.1-9.8,30.1-17.1,42.5c-3.9,6.6-6.8,11.5-10.6,16.7c0-1.9,0-3.9,0-5.8c-0.1-27.5,0.3-49.1,0.4-56.9
	c0.2-7.6,0.5-13.3,0.5-14.7c-0.1-3-1.8-4.1-5.4-5.5c-3.2-1.3-7-2.2-10.9-2.5c-4.9-0.4-7.9,2.3-7.8,5.4v4.2
	c-4.1-6.4-10.6-10.9-15-12.1c-11.8-3.5-24-0.4-33.3,12.6c-7.3,10.3-12.2,24.7-13.5,38.5c-1.3,12.9-1,23.9,0.7,33.1
	c-1.9,9.2-7.3,18.9-13.3,18.9c-7.8,0-12.2-6.9-12.2-38.3c0-18.3,0.6-26.3,0.9-39.5c0.2-7.6,0.4-13.5,0.4-14.8
	c0-4.1-7.1-6.1-10.4-6.9c-3.4-0.8-6.4-1.1-8.7-0.9c-3,0.3-5.1,2.9-5.1,5v4.6c-4.1-6.4-10.6-10.9-15-12.1
	c-11.7-3.5-23.9-0.3-33.2,12.6c-6.1,8.4-11,17.7-13.6,38.4c-0.7,6-1,11.5-1,16.8c-2.4,14.8-13.1,31.9-21.9,31.9
	c-5.1,0-10-9.9-10-31.1c0-28.2,1.8-68.4,2.1-72.3c0,0,11-0.2,13.2-0.2c5.5,0,10.5,0.1,17.8-0.3c3.7-0.2,7.3-13.4,3.4-15.1
	c-1.7-0.7-13.9-1.4-18.7-1.5c-4.1-0.1-15.4-0.9-15.4-0.9s1-26.7,1.2-29.5c0.2-2.4-2.8-3.6-4.6-4.3c-4.2-1.8-8-2.7-12.5-3.6
	c-6.2-1.3-9,0-9.6,5.2c-0.8,7.9-1.3,31.2-1.3,31.2c-4.6,0-20.1-0.9-24.7-0.9c-4.2,0-8.8,18.2-2.9,18.4c6.8,0.3,18.5,0.5,26.2,0.7
	c0,0-0.3,40.9-0.3,53.4v3.9c-4.3,22.3-19.3,34.4-19.3,34.4c3.2-14.8-3.4-25.9-15.3-35.2c-4.4-3.5-13.1-10.1-22.8-17.2
	c0,0,5.6-5.6,10.6-16.7c3.5-7.9,3.7-17-5-18.9c-14.3-3.3-26.1,7.2-29.6,18.5c-2.7,8.7-1.3,15.1,4.1,21.8l1.2,1.5
	c-3.2,6.2-7.7,14.6-11.4,21.1c-10.5,18.1-18.3,32.3-24.3,32.3c-4.8,0-4.7-14.5-4.7-28c0-11.7,0.9-29.3,1.6-47.5
	c0.2-6-2.8-9.5-7.8-12.6c-3.1-1.9-9.6-5.6-13.4-5.6c-5.6,0-22,0.8-37.5,45.5c-1.9,5.7-5.8,15.9-5.8,15.9l0.3-53.8
	c0-1.3-0.7-2.4-2.2-3.3c-2.6-1.4-9.6-4.3-15.8-4.3c-3,0-4.5,1.4-4.5,4.1l-0.5,84.1c0,6.4,0.2,13.9,0.8,17.1c0.6,3.3,1.7,5.9,2.9,7.5
	c1.3,1.5,2.7,2.7,5.1,3.3c2.2,0.5,14.5,2,15.1-2.7c0.8-5.6,0.8-11.7,7.3-34.4c10-35.3,23.1-52.5,29.3-58.6c1.1-1.1,2.3-1.1,2.3,0.6
	c-0.3,7.8-1.2,27.1-1.8,43.5c-1.7,44,6.3,52.1,17.8,52.1c8.7,0,21-8.7,34.3-30.7c8.3-13.7,16.2-27.1,22-36.8c4,3.7,8.5,7.7,13,12
	c10.5,9.9,13.9,19.3,11.6,28.2c-1.7,6.8-8.3,13.9-19.9,7c-3.4-2-4.8-3.5-8.3-5.8c-1.8-1.2-4.7-1.6-6.3-0.3
	c-4.4,3.3-6.9,7.5-8.3,12.7c-1.4,5.1,3.7,7.7,8.9,10c4.5,2,14.2,3.8,20.3,4.1c24.1,0.8,43.4-11.6,56.8-43.6
	c2.4,27.7,12.6,43.3,30.4,43.3c11.9,0,23.8-15.4,29-30.5c1.5,6.2,3.7,11.5,6.6,16c13.7,21.7,40.2,17,53.6-1.4
	c4.1-5.7,4.8-7.8,4.8-7.8c1.9,17.4,15.9,23.5,24,23.5c9,0,18.2-4.3,24.7-18.9c0.8,1.6,1.6,3.1,2.5,4.6c13.7,21.7,40.2,17,53.6-1.4
	c0.6-0.9,1.2-1.7,1.6-2.4l0.4,11.4c0,0-7.6,7-12.3,11.3c-20.6,18.9-36.2,33.2-37.4,49.8c-1.4,21.3,15.8,29.1,28.8,30.2
	c13.8,1.1,25.7-6.5,33-17.3c6.4-9.4,10.6-29.7,10.3-49.7c-0.1-8-0.3-18.2-0.5-29.2c7.3-8.3,15.4-19,22.9-31.4
	c8.2-13.5,16.9-31.7,21.4-45.8c0,0,7.6,0.1,15.7-0.4c2.6-0.2,3.4,0.4,2.9,2.3c-0.6,2.3-10.2,39.6-1.4,64.5
	c6.1,17,19.7,22.5,27.8,22.5c9.4,0,18.5-7.2,23.3-17.8c0.6,1.2,1.2,2.3,1.9,3.4c13.7,21.7,40.1,17,53.6-1.4c3-4.2,4.7-7.8,4.7-7.8
	c2.9,18,16.9,23.6,24.9,23.6c8.4,0,16.3-3.4,22.7-18.6c0.3,6.7,0.7,12.2,1.4,13.9c0.4,1.1,2.8,2.4,4.5,3c7.7,2.8,15.4,1.5,18.3,0.9
	c2-0.4,3.6-2,3.8-6.1c0.6-10.9,0.2-29.1,3.5-42.7c5.6-22.7,10.7-31.6,13.2-35.9c1.4-2.5,2.9-2.9,3-0.3c0.1,5.2,0.4,20.6,2.5,41.4
	c1.5,15.2,3.6,24.2,5.3,27.1c4.6,8.1,10.3,8.5,14.9,8.5c3,0,9.1-0.8,8.6-6c-0.3-2.5,0.2-18.1,5.6-40.5c3.6-14.7,9.5-27.9,11.6-32.7
	c0.8-1.8,1.2-0.4,1.2-0.1c-0.5,10.1-1.5,43.1,2.6,61.1c5.6,24.5,21.7,27.2,27.3,27.2c12,0,21.8-9.1,25.1-33.1
	C1062.1,407.4,1060.9,403,1057.4,403 M555.4,388.2c-0.7,12.7-3.1,23.3-7.1,31c-7.2,14-21.4,18.4-27.7-1.8c-4.6-14.5-3-34.4-1.1-45.1
	c2.8-15.9,9.8-27.1,20.7-26.1C551.4,347.3,556.8,361.7,555.4,388.2 M664.9,388.3c-0.6,12-3.7,24-7.1,30.8
	c-7,14.1-21.6,18.5-27.7-1.8c-4.1-13.9-3.2-31.7-1.1-43c2.7-14.6,9.1-28.2,20.7-28.2C661,346.2,666.5,358.6,664.9,388.3
	 M667.8,470.1c-0.2,21.9-3.6,41-10.9,46.6c-10.5,7.9-24.6,1.9-21.7-14c2.6-14.1,14.8-28.5,32.6-46.2
	C667.8,456.6,667.9,460.6,667.8,470.1 M856.9,388.5c-0.6,13.2-3.6,23.4-7.2,30.7c-7,14.1-21.5,18.4-27.7-1.8
	c-3.4-11-3.5-29.4-1.1-44.8c2.4-15.6,9.3-27.4,20.7-26.4C852.9,347.3,858.1,361.7,856.9,388.5"/>
</svg>
